<?xml version="1.0" encoding="utf-8"?>
<!-- Generator: Adobe Illustrator 23.1.1, SVG Export Plug-In . SVG Version: 6.00 Build 0)  -->
<svg version="1.1" id="Layer_1" xmlns="http://www.w3.org/2000/svg" xmlns:xlink="http://www.w3.org/1999/xlink" x="0px" y="0px"
	 viewBox="0 0 57.2 55.8" style="enable-background:new 0 0 57.2 55.8;" xml:space="preserve">
<g id="Elementer">
	<g>
		<path class="st0" d="M17.7,22.2l-5.6-5.6l0.8-0.8c3.4-3.4,10-3.7,13.7-3.5l-0.1,2.4c-2.4-0.1-7.9,0-11,2.1l3.9,3.9L17.7,22.2z"/>
	</g>
	<g>
		<path class="st0" d="M39.3,43.8l-5.7-5.7l1.7-1.7l3.9,3.9c2.1-3.2,2.2-8.7,2.1-11.1l2.4-0.1c0.1,3.7-0.1,10.3-3.5,13.7L39.3,43.8z
			"/>
	</g>
	<g>
		<polygon class="st0" points="26.5,42 13.9,29.4 34.1,9.1 35.8,10.8 17.2,29.4 26.5,38.6 45.1,20.1 46.8,21.7 		"/>
	</g>
	<g>
		<path class="st0" d="M48.3,20.2L35.7,7.6l0.8-0.8c4.3-4.3,14.2-3.1,14.6-3L52,3.9l0.1,0.9c0.1,0.4,1.3,10.4-3,14.6L48.3,20.2z
			 M39.1,7.7l9.1,9.1c1.9-2.9,1.9-8.1,1.7-10.8C47.2,5.7,42,5.8,39.1,7.7z"/>
	</g>
	<g>
		<path class="st0" d="M37.4,20.4c-1.2,0-2.1-0.9-2.1-2.1s0.9-2.1,2.1-2.1s2.1,0.9,2.1,2.1S38.6,20.4,37.4,20.4z M37.4,18.1
			c-0.1,0-0.3,0.1-0.3,0.3c0,0.3,0.5,0.3,0.5,0C37.7,18.2,37.6,18.1,37.4,18.1z"/>
	</g>
	<g>
		
			<rect x="16.6" y="31.3" transform="matrix(0.7071 -0.7071 0.7071 0.7071 -21.701 23.7432)" class="st0" width="2.4" height="13.5"/>
	</g>
	<g>
		
			<rect x="9.3" y="42.7" transform="matrix(0.7063 -0.7079 0.7079 0.7063 -27.5916 21.3501)" class="st0" width="5.3" height="2.4"/>
	</g>
	<g>
		<rect x="4.9" y="32.1" transform="matrix(0.9931 -0.117 0.117 0.9931 -3.8453 1.0952)" class="st0" width="5" height="2.4"/>
	</g>
	<g>
		<rect x="20.1" y="47.4" transform="matrix(0.1327 -0.9912 0.9912 0.1327 -28.5254 64.51)" class="st0" width="5" height="2.4"/>
	</g>
</g>
</svg>
